<svg width="165" height="22" viewBox="0 0 165 22" fill="none" xmlns="http://www.w3.org/2000/svg">
<path d="M11.0003 21.1852C5.37581 21.1852 0.816251 16.6258 0.816016 11.0015C0.816016 5.37662 5.37546 0.817121 10.9999 0.816827C16.6248 0.816827 21.1843 5.37627 21.1846 11.0006C21.1846 16.6245 16.6252 21.1839 11.0008 21.1842M11.0003 0.000234925C4.92475 0.000234925 -0.000117461 4.92516 2.10117e-09 11.0003C2.10117e-09 17.0753 4.92499 22.0001 11.0002 22C17.0751 22 22.0001 17.0751 22 10.9999C22 4.92469 17.0755 0.000117464 11.0003 0.000234925Z" fill="white"/>
<path d="M13.9082 5.81868H13.2619C13.1743 5.79624 13.081 5.81163 13.0062 5.86102C12.9313 5.91036 12.8823 5.98853 12.872 6.07545L9.52771 15.8444C9.51032 15.8879 9.49962 15.9339 9.49609 15.9805C9.49615 16.0722 9.54219 16.1806 9.76176 16.1806H10.4146C10.503 16.2028 10.5971 16.187 10.6725 16.1374C10.7479 16.0876 10.7974 16.0089 10.8083 15.9212L14.1399 6.15056C14.1573 6.10751 14.168 6.06206 14.1715 6.01595C14.1715 5.92433 14.126 5.8175 13.9085 5.8175" fill="white"/>
<path d="M16.1591 9.97611C16.0804 9.92413 15.9854 9.90087 15.8906 9.91009H15.3216C15.2269 9.90075 15.1319 9.92413 15.0535 9.97611C14.9919 10.0466 14.9634 10.1387 14.9753 10.2304V15.8625C14.9634 15.9541 14.9919 16.0464 15.0538 16.1169C15.1321 16.1689 15.2271 16.1923 15.3215 16.1828H15.8906C15.9854 16.1921 16.0805 16.1688 16.159 16.1168C16.2206 16.0463 16.2489 15.9541 16.2372 15.8625V10.2304C16.2489 10.1387 16.2207 10.0467 16.1591 9.97611Z" fill="white"/>
<path d="M9.33344 6.82419C9.2567 6.72276 9.16999 6.62867 9.07477 6.54322C8.56411 6.09552 8.03704 5.83405 6.85351 5.82312L6.08491 5.82071H6.08017C6.03979 5.81895 5.9993 5.823 5.96002 5.83252C5.8806 5.85766 5.79888 5.92426 5.85823 6.10133L5.93472 6.32791L6.03213 6.6171C6.04891 6.69298 6.08844 6.76246 6.1456 6.8169C6.21175 6.85021 6.28618 6.86583 6.36061 6.86213H6.5699C7.31138 6.86213 7.80622 7.00837 8.12679 7.32293C8.44299 7.63162 8.59476 8.16577 8.59476 8.95582C8.59476 9.74586 8.44177 10.28 8.12679 10.589C7.80622 10.9034 7.31174 11.0499 6.57027 11.0499H6.36195C6.28703 11.0459 6.21248 11.0615 6.14596 11.0948C6.08868 11.1492 6.04904 11.2186 6.03213 11.2944L5.93472 11.5837L5.85823 11.8103C5.79888 11.9871 5.8806 12.0546 5.96014 12.0791C5.99893 12.0886 6.03906 12.0926 6.0792 12.0909L6.85351 12.0885C8.03704 12.0775 8.56411 11.8161 9.07477 11.3684C9.16999 11.2829 9.25658 11.1888 9.33344 11.0875C9.71287 10.5989 9.89809 9.90221 9.89809 8.95429C9.89809 8.00638 9.71348 7.3086 9.33344 6.82113" fill="white"/>
<path d="M34.7429 10.9989H37.2753C38.1973 10.9989 38.8528 10.8224 39.2419 10.4694C39.6311 10.1164 39.8257 9.51221 39.8257 8.65681V8.37972C39.8257 7.46518 39.634 6.82044 39.2505 6.4455C38.867 6.07053 38.2084 5.88259 37.2749 5.88168H34.7425L34.7429 10.9989ZM34.7429 12.1782V16.7051C34.7563 16.8043 34.7272 16.9045 34.6626 16.9826C34.575 17.0382 34.4703 17.0628 34.3662 17.0521H33.7195C33.6155 17.0627 33.5109 17.0381 33.4236 16.9826C33.3589 16.9045 33.3299 16.8043 33.3431 16.7051V5.04854C33.3296 4.94947 33.3587 4.84933 33.4236 4.77148C33.5109 4.71588 33.6154 4.69118 33.7195 4.70152H37.2228C38.6472 4.70152 39.6858 4.98758 40.3389 5.55978C40.9919 6.13199 41.318 7.04844 41.3175 8.3093V8.65636C41.3175 11.0036 39.9525 12.1773 37.2228 12.1773L34.7429 12.1782Z" fill="white"/>
<path d="M59.6891 8.79603C58.1207 8.79603 57.3306 9.79636 57.3186 11.7971H61.952C62.0139 11.0033 61.8228 10.2102 61.4042 9.5245C60.9955 9.01871 60.3512 8.74532 59.6891 8.79603ZM57.3186 12.9242V13.2539C57.3186 15.1619 58.1205 16.1157 59.7245 16.1154C60.7423 16.1154 61.4189 15.7396 61.7541 14.9878C61.7847 14.894 61.837 14.8082 61.907 14.7368C61.9878 14.6994 62.0776 14.6837 62.167 14.6911H62.8135C62.9236 14.6826 63.0341 14.6982 63.1369 14.7368C63.1849 14.7673 63.2088 14.8454 63.2084 14.9709C63.1914 15.1907 63.124 15.404 63.011 15.5955C62.8908 15.8328 62.7398 16.0544 62.5617 16.2549C62.2278 16.6008 61.8117 16.8627 61.3493 17.0181C60.8115 17.2079 60.2425 17.302 59.6701 17.2956C58.6297 17.3599 57.6114 16.9868 56.8769 16.2723C56.1763 15.4576 55.826 14.4144 55.8979 13.3577V12.0568C55.8979 10.6579 56.221 9.58528 56.8674 8.83902C57.5783 8.06595 58.6189 7.65301 59.6872 7.72008C62.1534 7.72008 63.3866 9.04417 63.3869 11.6923V12.5771C63.3998 12.6764 63.3706 12.7765 63.306 12.8547C63.2184 12.9102 63.1137 12.9347 63.0096 12.9242L57.3186 12.9242Z" fill="white"/>
<path d="M69.081 7.96625C69.1749 7.95805 69.2683 7.98599 69.341 8.04398C69.4124 8.12783 69.4645 8.2254 69.4939 8.33023L71.9902 15.6853L74.4151 8.33023C74.4399 8.22142 74.4923 8.12025 74.5675 8.03577C74.6427 7.9832 74.7349 7.95857 74.8274 7.96629H75.5821C75.7733 7.96629 75.8689 8.03577 75.8689 8.17477C75.8576 8.24569 75.8396 8.31546 75.8154 8.38329L72.9233 16.6744C72.887 16.7868 72.8259 16.8904 72.7443 16.978C72.6614 17.0365 72.5593 17.0641 72.4571 17.0558H71.4155C71.3131 17.0644 71.2109 17.0368 71.1281 16.978C71.0461 16.8906 70.9848 16.787 70.9482 16.6744L68.075 8.38329C68.0509 8.3154 68.033 8.24564 68.0215 8.17477C68.0215 8.03759 68.1162 7.96629 68.3088 7.96629L69.081 7.96625Z" fill="white"/>
<path d="M84.3454 12.6452C83.4235 12.6452 82.7859 12.7839 82.4328 13.0613C82.0449 13.4209 81.8495 13.9325 81.9027 14.4491C81.8588 14.9117 82.0416 15.3675 82.3969 15.6805C82.9176 15.9833 83.5251 16.1171 84.13 16.0623H84.292C84.8476 16.1148 85.4 15.9348 85.8094 15.5681C86.1557 15.1097 86.3186 14.5457 86.2675 13.9804V12.8007C85.9081 12.7547 85.5518 12.7172 85.1986 12.6882C84.8454 12.6592 84.5613 12.644 84.3464 12.6425M84.2385 11.4993C84.478 11.4993 84.7836 11.5108 85.155 11.5336C85.5266 11.5565 85.8977 11.5912 86.2685 11.6379V10.6141C86.3163 10.1134 86.1508 9.61555 85.8101 9.23543C85.3848 8.91419 84.8481 8.76206 84.3103 8.81018C83.8693 8.78616 83.4288 8.86635 83.0269 9.04384C82.7081 9.22875 82.464 9.51333 82.3353 9.85046C82.3006 9.93769 82.2527 10.0195 82.1933 10.0933C82.112 10.139 82.0172 10.1575 81.9239 10.1459L81.2773 10.1458C81.1675 10.1576 81.0568 10.1331 80.9633 10.0763C80.8998 10.0043 80.8704 9.91004 80.8818 9.81618C80.887 9.63153 80.9356 9.45046 81.0239 9.28664C81.1193 9.09624 81.2399 8.91852 81.3828 8.75805C81.6988 8.40821 82.1 8.13979 82.5503 7.97704C83.1159 7.78829 83.7122 7.70012 84.3103 7.71685C85.5077 7.71685 86.3697 7.93955 86.8967 8.38494C87.4238 8.83029 87.6873 9.56192 87.687 10.5798V14.1359C87.687 15.1879 87.4177 15.9653 86.8792 16.4679C86.3408 16.9706 85.4787 17.2219 84.2928 17.2219H84.0235C82.8022 17.2219 81.901 17.0052 81.3202 16.5717C80.7395 16.1383 80.4492 15.4356 80.4492 14.4638C80.4492 13.435 80.7545 12.6832 81.3651 12.2085C81.9759 11.7339 82.9336 11.4971 84.2385 11.498" fill="white"/>
<path d="M104.495 8.79606C102.927 8.79606 102.137 9.79638 102.125 11.7971H106.758C106.82 11.0033 106.629 10.2102 106.21 9.52445C105.802 9.01875 105.157 8.74543 104.495 8.79606ZM102.125 12.9242V13.2539C102.125 15.1619 102.927 16.1157 104.531 16.1154C105.549 16.1154 106.226 15.7396 106.561 14.9878C106.591 14.8941 106.644 14.8082 106.714 14.7368C106.795 14.6994 106.884 14.6836 106.974 14.6911H107.62C107.73 14.6826 107.841 14.6982 107.944 14.7368C107.992 14.7673 108.015 14.8453 108.015 14.9709C107.998 15.1907 107.931 15.4041 107.818 15.5955C107.698 15.8328 107.547 16.0544 107.368 16.2549C107.035 16.6008 106.618 16.8628 106.156 17.0181C105.618 17.2079 105.049 17.3019 104.477 17.2956C103.436 17.3599 102.418 16.9868 101.684 16.2723C100.983 15.4576 100.633 14.4144 100.705 13.3577V12.0568C100.705 10.6579 101.028 9.58525 101.674 8.83901C102.385 8.06587 103.426 7.65295 104.494 7.7201C106.96 7.7201 108.193 9.04417 108.194 11.6923V12.5771C108.206 12.6764 108.177 12.7765 108.113 12.8547C108.025 12.9102 107.92 12.9347 107.816 12.9242L102.125 12.9242Z" fill="white"/>
<path d="M130.035 17.0521C129.388 17.1084 128.747 16.9081 128.257 16.4974C127.843 16.0052 127.643 15.377 127.699 14.7452V9.10762H126.532C126.4 9.10762 126.317 9.0843 126.281 9.03855C126.236 8.95288 126.217 8.85657 126.227 8.761V8.3097C126.217 8.21431 126.236 8.11817 126.281 8.03264C126.317 7.98689 126.4 7.96309 126.532 7.96309H127.699V5.75956C127.687 5.66018 127.716 5.56002 127.78 5.48151C127.868 5.42646 127.973 5.40214 128.077 5.41249H128.74C128.844 5.40214 128.948 5.42649 129.036 5.48151C129.101 5.55987 129.13 5.66015 129.116 5.75956V7.9626H130.969C131.1 7.9626 131.184 7.98577 131.22 8.03216C131.265 8.11773 131.284 8.21385 131.274 8.30925V8.76055C131.284 8.85609 131.265 8.95239 131.22 9.03811C131.184 9.08385 131.1 9.10716 130.969 9.10716H129.119V14.5193C129.087 14.8737 129.172 15.2286 129.362 15.5335C129.562 15.7521 129.859 15.865 130.16 15.8372H131.005C131.137 15.8372 131.221 15.8609 131.256 15.9067C131.301 15.9922 131.32 16.0883 131.31 16.1837V16.7064C131.32 16.802 131.301 16.8982 131.256 16.9839C131.221 17.0297 131.137 17.0535 131.005 17.0535L130.035 17.0521Z" fill="white"/>
<path d="M149.667 12.4546H154.013L151.858 6.07124L149.667 12.4546ZM156.994 16.687C157.014 16.737 157.026 16.7896 157.031 16.8429C157.031 16.9816 156.934 17.0512 156.743 17.0515H155.935C155.834 17.0797 155.725 17.0631 155.638 17.0061C155.552 16.9492 155.496 16.8578 155.486 16.757L154.426 13.6691H149.253L148.211 16.757C148.201 16.8579 148.145 16.9492 148.058 17.0061C147.972 17.0631 147.863 17.0797 147.762 17.0515H147.008C146.817 17.0515 146.721 16.982 146.721 16.8429C146.725 16.7896 146.737 16.7371 146.756 16.687L150.869 5.08264C150.9 4.9741 150.955 4.87351 151.031 4.78812C151.117 4.72178 151.227 4.69064 151.337 4.70126L152.486 4.7013C152.597 4.69046 152.708 4.72495 152.791 4.79639C152.863 4.88112 152.918 4.97826 152.952 5.08264L156.994 16.687Z" fill="white"/>
<path d="M164.638 5.84511C164.741 5.85782 164.844 5.82978 164.925 5.76738C164.983 5.68301 165.008 5.58203 164.997 5.4816V5.07007C165.008 4.96946 164.983 4.86836 164.925 4.78382C164.844 4.72153 164.741 4.69352 164.638 4.70606H161.267C161.165 4.69352 161.061 4.72153 160.981 4.78382C160.924 4.86848 160.898 4.96946 160.909 5.07007V5.4816C160.898 5.582 160.924 5.6829 160.981 5.76738C161.061 5.82978 161.165 5.85782 161.267 5.84511H162.234V15.9118H161.267C161.165 15.8992 161.061 15.9272 160.981 15.9895C160.924 16.0742 160.898 16.1752 160.909 16.2757V16.69C160.898 16.7904 160.923 16.8913 160.981 16.9758C161.061 17.0385 161.165 17.0666 161.267 17.0535H164.638C164.741 17.0664 164.844 17.0383 164.925 16.9758C164.983 16.8915 165.008 16.7904 164.997 16.69V16.2757C165.008 16.1752 164.983 16.0741 164.925 15.9895C164.844 15.9272 164.741 15.8991 164.638 15.9118H163.672V5.84511H164.638Z" fill="white"/>
<path d="M120.319 8.50035C119.697 7.94548 118.865 7.66326 118.02 7.72023C117.466 7.71076 116.917 7.81731 116.41 8.03254C115.953 8.22844 115.554 8.53283 115.251 8.91737V8.31013C115.265 8.21088 115.236 8.11054 115.171 8.03257C115.158 8.02196 115.144 8.01302 115.128 8.00604C115.052 7.96857 114.966 7.9517 114.88 7.95713H112.699C112.596 7.94448 112.493 7.97255 112.412 8.03488C112.355 8.11957 112.33 8.22063 112.34 8.3211V8.73263C112.329 8.83304 112.355 8.93394 112.412 9.01846C112.493 9.08137 112.596 9.10967 112.699 9.09661H113.873V16.7054C113.86 16.8047 113.889 16.905 113.954 16.983C114.041 17.0385 114.146 17.0631 114.25 17.0525H114.913C115.017 17.0632 115.122 17.0387 115.209 16.983C115.274 16.9052 115.304 16.8049 115.29 16.7054V11.3807C115.257 10.7306 115.485 10.0934 115.928 9.60237C116.371 9.14935 116.998 8.90544 117.643 8.9343C118.215 8.88336 118.783 9.06948 119.205 9.44643C119.569 9.9103 119.742 10.488 119.69 11.0679V16.7054C119.677 16.8047 119.706 16.9049 119.771 16.983C119.858 17.0386 119.963 17.0632 120.068 17.0525H120.73C120.834 17.0631 120.939 17.0385 121.026 16.983C121.091 16.905 121.121 16.8048 121.108 16.7054V10.7734C121.168 9.94446 120.883 9.12659 120.317 8.5008" fill="white"/>
<path d="M94.9714 16.7052C94.9849 16.8045 94.9554 16.9049 94.8901 16.9827C94.8028 17.0383 94.6982 17.0628 94.5941 17.0522H93.9314C93.8272 17.0629 93.7225 17.0383 93.635 16.9827C93.5701 16.9047 93.5408 16.8045 93.554 16.7052V5.04863C93.5407 4.94947 93.57 4.84936 93.6351 4.77151C93.7225 4.71581 93.8272 4.69111 93.9314 4.70156H94.5942C94.6982 4.6912 94.8028 4.71595 94.8901 4.77151C94.9554 4.84924 94.9848 4.94938 94.9714 5.04863V16.7052Z" fill="white"/>
<path d="M51.1934 8.03341C51.1574 7.98767 51.0736 7.9639 50.942 7.9639H50.7082C50.1538 7.9574 49.6112 8.11717 49.1549 8.42116C48.6996 8.72101 48.3416 9.13902 48.1218 9.62698V8.82216C48.1218 8.79659 48.1256 8.7696 48.1256 8.73941V8.3279C48.1364 8.22732 48.1111 8.12618 48.0536 8.04163C47.9726 7.97932 47.869 7.95128 47.7663 7.9639H45.5824C45.4798 7.95129 45.3763 7.97932 45.2956 8.04163C45.2381 8.12623 45.2125 8.22728 45.2231 8.3279V8.73941C45.2124 8.83987 45.238 8.94083 45.2956 9.02518C45.3763 9.08758 45.4798 9.11564 45.5824 9.10291H46.7399V16.7035C46.7263 16.8028 46.7553 16.9031 46.8205 16.9811C46.9079 17.0367 47.0126 17.0613 47.1168 17.0506H47.7796C47.8836 17.0612 47.9882 17.0367 48.0755 16.9811C48.1408 16.9033 48.1703 16.8029 48.1569 16.7035V12.2804C48.1532 11.8788 48.2075 11.4787 48.3183 11.0915C48.4152 10.7496 48.5732 10.4267 48.7851 10.1373C48.9759 9.87664 49.2245 9.66044 49.5128 9.50439C49.8074 9.35077 50.1381 9.27295 50.4729 9.27849H50.9401C51.0718 9.27849 51.156 9.25563 51.1915 9.20902C51.2364 9.1235 51.2549 9.02731 51.2451 8.93193V8.3073C51.2548 8.21173 51.2364 8.11546 51.1915 8.02975" fill="white"/>
</svg>
