<svg width="22" height="22" viewBox="0 0 22 22" fill="none" xmlns="http://www.w3.org/2000/svg">
<rect width="22" height="22" rx="4" fill="#131313"/>
<path d="M11.0003 21.1852C5.37581 21.1852 0.816251 16.6258 0.816016 11.0015C0.816016 5.37662 5.37546 0.817121 10.9999 0.816827C16.6248 0.816827 21.1843 5.37627 21.1846 11.0006C21.1846 16.6245 16.6252 21.1839 11.0008 21.1842M11.0003 0.000234925C4.92475 0.000234925 -0.000117461 4.92516 2.10117e-09 11.0003C2.10117e-09 17.0753 4.92499 22.0001 11.0002 22C17.0751 22 22.0001 17.0751 22 10.9999C22 4.92469 17.0755 0.000117464 11.0003 0.000234925Z" fill="white"/>
<path d="M13.9082 5.81868H13.2619C13.1743 5.79624 13.081 5.81163 13.0062 5.86102C12.9313 5.91036 12.8823 5.98853 12.872 6.07545L9.52771 15.8444C9.51032 15.8879 9.49962 15.9339 9.49609 15.9805C9.49615 16.0722 9.54219 16.1806 9.76176 16.1806H10.4146C10.503 16.2028 10.5971 16.187 10.6725 16.1374C10.7479 16.0876 10.7974 16.0089 10.8083 15.9212L14.1399 6.15056C14.1573 6.10751 14.168 6.06206 14.1715 6.01595C14.1715 5.92433 14.126 5.8175 13.9085 5.8175" fill="white"/>
<path d="M16.1591 9.97611C16.0804 9.92413 15.9854 9.90087 15.8906 9.91009H15.3216C15.2269 9.90075 15.1319 9.92413 15.0535 9.97611C14.9919 10.0466 14.9634 10.1387 14.9753 10.2304V15.8625C14.9634 15.9541 14.9919 16.0464 15.0538 16.1169C15.1321 16.1689 15.2271 16.1923 15.3215 16.1828H15.8906C15.9854 16.1921 16.0805 16.1688 16.159 16.1168C16.2206 16.0463 16.2489 15.9541 16.2372 15.8625V10.2304C16.2489 10.1387 16.2207 10.0467 16.1591 9.97611Z" fill="white"/>
<path d="M9.33344 6.82419C9.2567 6.72276 9.16999 6.62867 9.07477 6.54322C8.56411 6.09552 8.03704 5.83405 6.85351 5.82312L6.08491 5.82071H6.08017C6.03979 5.81895 5.9993 5.823 5.96002 5.83252C5.8806 5.85766 5.79888 5.92426 5.85823 6.10133L5.93472 6.32791L6.03213 6.6171C6.04891 6.69298 6.08844 6.76246 6.1456 6.8169C6.21175 6.85021 6.28618 6.86583 6.36061 6.86213H6.5699C7.31138 6.86213 7.80622 7.00837 8.12679 7.32293C8.44299 7.63162 8.59476 8.16577 8.59476 8.95582C8.59476 9.74586 8.44177 10.28 8.12679 10.589C7.80622 10.9034 7.31174 11.0499 6.57027 11.0499H6.36195C6.28703 11.0459 6.21248 11.0615 6.14596 11.0948C6.08868 11.1492 6.04904 11.2186 6.03213 11.2944L5.93472 11.5837L5.85823 11.8103C5.79888 11.9871 5.8806 12.0546 5.96014 12.0791C5.99893 12.0886 6.03906 12.0926 6.0792 12.0909L6.85351 12.0885C8.03704 12.0775 8.56411 11.8161 9.07477 11.3684C9.16999 11.2829 9.25658 11.1888 9.33344 11.0875C9.71287 10.5989 9.89809 9.90221 9.89809 8.95429C9.89809 8.00638 9.71348 7.3086 9.33344 6.82113" fill="white"/>
</svg>
