<svg width="20" height="20" viewBox="0 0 20 20" fill="none" xmlns="http://www.w3.org/2000/svg">
<rect x="0.333333" y="0.333333" width="19.3333" height="19.3333" rx="9.66667" fill="#9982BB" fill-opacity="0.3"/>
<rect x="0.333333" y="0.333333" width="19.3333" height="19.3333" rx="9.66667" stroke="#9982BB" stroke-width="0.666667"/>
<g clip-path="url(#clip0_3828_4047)">
<path d="M10.483 12.096C10.0538 11.6586 9.35951 11.6571 8.93213 12.0926C8.50474 12.5281 8.50623 13.2356 8.93543 13.673C9.36446 14.1102 10.0587 14.1117 10.4861 13.6762C10.6842 13.4744 10.7378 13.2357 10.7378 13.2357L13.7655 13.2395C13.8496 13.2397 14.0178 13.1886 14.0174 12.9828L14.0169 12.7624C14.0109 12.6827 13.9551 12.5233 13.782 12.523L13.5681 12.5225C13.5674 12.2652 13.3508 12.1912 13.2248 12.2094C13.0084 12.2455 12.9908 12.4846 12.9908 12.4846H12.7367C12.6341 12.0002 12.2699 12.0776 12.1436 12.096C11.8786 12.1346 11.8164 12.4846 11.8164 12.4846C11.7804 12.5948 11.1329 12.5384 10.9527 12.5379L10.7363 12.5375C10.7215 12.3755 10.5614 12.1758 10.483 12.096Z" fill="#9269CF"/>
<path d="M11.9921 11.4233C11.4638 10.8781 10.7473 10.5718 10.0002 10.5718C9.25316 10.5718 8.53667 10.8781 8.0084 11.4233C7.48013 11.9685 7.18335 12.708 7.18335 13.479H7.76761" stroke="#9269CF" stroke-width="0.666667" stroke-linecap="round" stroke-linejoin="round"/>
<path d="M10.0005 9.39994C10.8025 9.39994 11.4527 8.74978 11.4527 7.94777C11.4527 7.14576 10.8025 6.49561 10.0005 6.49561C9.1985 6.49561 8.54834 7.14576 8.54834 7.94777C8.54834 8.74978 9.1985 9.39994 10.0005 9.39994Z" stroke="#9269CF" stroke-width="0.666667" stroke-linecap="round" stroke-linejoin="round"/>
</g>
<defs>
<clipPath id="clip0_3828_4047">
<rect width="10.6667" height="10.6667" fill="white" transform="translate(4.66675 4.6665)"/>
</clipPath>
</defs>
</svg>
