<svg width="20" height="20" viewBox="0 0 20 20" fill="none" xmlns="http://www.w3.org/2000/svg">
<rect x="0.333333" y="0.333333" width="19.3333" height="19.3333" rx="9.66667" fill="#CDB99C" fill-opacity="0.3"/>
<rect x="0.333333" y="0.333333" width="19.3333" height="19.3333" rx="9.66667" stroke="#B4853D" stroke-width="0.666667"/>
<path d="M6 6.33333C6 6.14924 6.14924 6 6.33333 6H7C7.18409 6 7.33333 6.14924 7.33333 6.33333V7C7.33333 7.18409 7.18409 7.33333 7 7.33333H6.33333C6.14924 7.33333 6 7.18409 6 7V6.33333ZM9.33333 6.33333C9.33333 6.14924 9.48257 6 9.66667 6H10.3333C10.5174 6 10.6667 6.14924 10.6667 6.33333V7C10.6667 7.18409 10.5174 7.33333 10.3333 7.33333H9.66667C9.48257 7.33333 9.33333 7.18409 9.33333 7V6.33333ZM12.6667 6.33333C12.6667 6.14924 12.8159 6 13 6H13.6667C13.8508 6 14 6.14924 14 6.33333V7C14 7.18409 13.8508 7.33333 13.6667 7.33333H13C12.8159 7.33333 12.6667 7.18409 12.6667 7V6.33333ZM6 9.66667C6 9.48257 6.14924 9.33333 6.33333 9.33333H7C7.18409 9.33333 7.33333 9.48257 7.33333 9.66667V10.3333C7.33333 10.5174 7.18409 10.6667 7 10.6667H6.33333C6.14924 10.6667 6 10.5174 6 10.3333V9.66667ZM9.33333 9.66667C9.33333 9.48257 9.48257 9.33333 9.66667 9.33333H10.3333C10.5174 9.33333 10.6667 9.48257 10.6667 9.66667V10.3333C10.6667 10.5174 10.5174 10.6667 10.3333 10.6667H9.66667C9.48257 10.6667 9.33333 10.5174 9.33333 10.3333V9.66667ZM12.6667 9.66667C12.6667 9.48257 12.8159 9.33333 13 9.33333H13.6667C13.8508 9.33333 14 9.48257 14 9.66667V10.3333C14 10.5174 13.8508 10.6667 13.6667 10.6667H13C12.8159 10.6667 12.6667 10.5174 12.6667 10.3333V9.66667ZM6 13C6 12.8159 6.14924 12.6667 6.33333 12.6667H7C7.18409 12.6667 7.33333 12.8159 7.33333 13V13.6667C7.33333 13.8508 7.18409 14 7 14H6.33333C6.14924 14 6 13.8508 6 13.6667V13ZM9.33333 13C9.33333 12.8159 9.48257 12.6667 9.66667 12.6667H10.3333C10.5174 12.6667 10.6667 12.8159 10.6667 13V13.6667C10.6667 13.8508 10.5174 14 10.3333 14H9.66667C9.48257 14 9.33333 13.8508 9.33333 13.6667V13ZM12.6667 13C12.6667 12.8159 12.8159 12.6667 13 12.6667H13.6667C13.8508 12.6667 14 12.8159 14 13V13.6667C14 13.8508 13.8508 14 13.6667 14H13C12.8159 14 12.6667 13.8508 12.6667 13.6667V13Z" fill="#AD803D"/>
</svg>
