<svg width="20" height="20" viewBox="0 0 20 20" fill="none" xmlns="http://www.w3.org/2000/svg">
<rect x="0.333333" y="0.333333" width="19.3333" height="19.3333" rx="9.66667" fill="#3A96C4" fill-opacity="0.3"/>
<rect x="0.333333" y="0.333333" width="19.3333" height="19.3333" rx="9.66667" stroke="#3A96C4" stroke-width="0.666667"/>
<path d="M10.5247 11.7311C10.5247 11.7311 11.0492 12.2032 12.0983 12.2032C13.1475 12.2032 13.672 11.7311 13.672 11.7311M10.5247 10.7868C10.5247 10.7868 11.0492 11.259 12.0983 11.259C13.1475 11.259 13.672 10.7868 13.672 10.7868M10.5247 10.4842C10.5247 10.4842 10.787 10 12.0983 10C13.4097 10 13.672 10.4842 13.672 10.4842V12.6632C13.672 12.6632 13.4097 13.1474 12.0983 13.1474C10.787 13.1474 10.5247 12.6632 10.5247 12.6632V10.4842Z" stroke="#3A96C4" stroke-width="0.666667"/>
<path d="M13.1477 8.95079C12.5654 8.44008 11.8653 8.41568 11.8653 8.41568C11.8653 8.41568 11.1861 6.31511 9.04457 6.98406C7.54461 7.45259 7.50599 9.2746 7.50599 9.2746C7.50599 9.2746 6.32837 9.70708 6.32837 10.6421C6.32837 12.1123 7.50765 12.0982 7.50765 12.0982H9.11079" stroke="#3A96C4" stroke-width="0.666667" stroke-linecap="round"/>
</svg>
