<svg width="20" height="20" viewBox="0 0 20 20" fill="none" xmlns="http://www.w3.org/2000/svg">
<rect x="0.333333" y="0.333333" width="19.3333" height="19.3333" rx="9.66667" fill="#B49CCD" fill-opacity="0.3"/>
<rect x="0.333333" y="0.333333" width="19.3333" height="19.3333" rx="9.66667" stroke="#7E54AA" stroke-width="0.666667"/>
<path d="M9.72461 10.5145L11.1914 11.4924M9.72461 10.5145L11.1914 9.53662L12.6583 10.5145M9.72461 10.5145V12.2258L11.1914 13.2037M11.1914 11.4924L12.6583 10.5145M11.1914 11.4924V13.2037M12.6583 10.5145V12.2258L11.1914 13.2037" stroke="#66329C" stroke-width="0.666667" stroke-linecap="round" stroke-linejoin="round"/>
<path d="M13.7441 10.2909C13.7441 9.53055 13.3941 9.13919 12.9852 8.79325C12.4106 8.30722 11.7197 8.284 11.7197 8.284C11.7197 8.284 11.0495 6.28492 8.93621 6.92155C7.45604 7.36745 7.41794 9.10142 7.41794 9.10142C7.41794 9.10142 6.25586 9.513 6.25586 10.4028C6.25586 11.802 7.41958 11.7886 7.41958 11.7886L8.75195 11.7886" stroke="#66329C" stroke-width="0.666667" stroke-linecap="round"/>
</svg>
