<svg width="20" height="20" viewBox="0 0 20 20" fill="none" xmlns="http://www.w3.org/2000/svg">
<rect x="0.333333" y="0.333333" width="19.3333" height="19.3333" rx="9.66667" fill="#8888DD" fill-opacity="0.3"/>
<rect x="0.333333" y="0.333333" width="19.3333" height="19.3333" rx="9.66667" stroke="#5F5FCD" stroke-width="0.666667"/>
<path d="M9.66074 11.1946H7.70493C6.76346 11.1931 6.00024 10.4723 6.00024 9.58296C6.00024 8.69365 6.76346 7.97315 7.70493 7.97315C7.84879 7.34028 8.36163 6.82379 9.05017 6.61799C9.73834 6.41254 10.4983 6.54867 11.0429 6.97716C11.5876 7.40458 11.8343 8.05719 11.6908 8.69006H12.0532C12.4032 8.69006 12.7202 8.83013 12.9497 9.05641M12.2234 12.2706C12.0293 12.2706 11.8431 12.195 11.7058 12.0603C11.5685 11.9255 11.4913 11.7428 11.4913 11.5523C11.4913 11.3618 11.5685 11.1791 11.7058 11.0444C11.8431 10.9096 12.0293 10.834 12.2234 10.834M12.2234 12.2706C12.4176 12.2706 12.6038 12.195 12.7411 12.0603C12.8784 11.9255 12.9555 11.7428 12.9555 11.5523C12.9555 11.3618 12.8784 11.1791 12.7411 11.0444C12.6038 10.9096 12.4176 10.834 12.2234 10.834M12.2234 12.2706V12.8094M12.2234 10.834V10.2952M13.3329 10.9238L12.8574 11.1931M11.5898 11.9115L11.114 12.1809M11.114 10.9238L11.5898 11.1931M12.8574 11.9115L13.3333 12.1809" stroke="#3434B4" stroke-width="0.666667" stroke-linecap="round" stroke-linejoin="round"/>
</svg>
