<svg width="20" height="20" viewBox="0 0 20 20" fill="none" xmlns="http://www.w3.org/2000/svg">
<rect x="0.333333" y="0.333333" width="19.3333" height="19.3333" rx="9.66667" fill="#5E6AFF" fill-opacity="0.3"/>
<rect x="0.333333" y="0.333333" width="19.3333" height="19.3333" rx="9.66667" stroke="#5E6AFF" stroke-width="0.666667"/>
<path d="M7.48106 12.0851C7.48106 12.0851 6.34497 12.0982 6.34497 10.7323C6.34497 9.86355 7.47946 9.46174 7.47946 9.46174C7.47946 9.46174 7.51666 7.76893 8.96169 7.33362C11.0248 6.71211 11.6791 8.66372 11.6791 8.66372C11.6791 8.66372 12.3536 8.6864 12.9145 9.16089C13.3138 9.49861 13.6555 9.88069 13.6555 10.623" stroke="#3B43B0" stroke-width="0.666667" stroke-linecap="round"/>
<path d="M10.0186 11.1046C9.63287 10.7189 9.00891 10.7176 8.62481 11.1017C8.24072 11.4858 8.24205 12.1097 8.62778 12.4955C9.01336 12.881 9.63732 12.8824 10.0214 12.4983C10.1994 12.3203 10.2476 12.1098 10.2476 12.1098L12.9686 12.1132C13.0442 12.1133 13.1953 12.0682 13.195 11.8867L13.1946 11.6924C13.1891 11.6221 13.139 11.4816 12.9834 11.4813L12.7912 11.4808C12.7906 11.2539 12.5959 11.1886 12.4826 11.2047C12.2882 11.2365 12.2724 11.4474 12.2724 11.4474L12.044 11.4474C11.9518 11.0202 11.6245 11.0884 11.511 11.1046C11.2728 11.1387 11.217 11.4474 11.217 11.4474C11.1846 11.5446 10.6026 11.4948 10.4407 11.4943L10.2462 11.494C10.233 11.3511 10.089 11.1751 10.0186 11.1046Z" fill="#3B43B0"/>
</svg>
