<svg width="20" height="20" viewBox="0 0 20 20" fill="none" xmlns="http://www.w3.org/2000/svg">
<rect x="0.333333" y="0.333333" width="19.3367" height="19.3367" rx="9.66833" fill="#94F1F4" fill-opacity="0.3"/>
<rect x="0.333333" y="0.333333" width="19.3367" height="19.3367" rx="9.66833" stroke="#27BDC2" stroke-width="0.666667"/>
<path d="M10.0306 8.87613C10.5228 8.87613 10.9218 8.47713 10.9218 7.98494C10.9218 7.49275 10.5228 7.09375 10.0306 7.09375C9.5384 7.09375 9.1394 7.49275 9.1394 7.98494C9.1394 8.47713 9.5384 8.87613 10.0306 8.87613Z" stroke="#27BDC2" stroke-width="0.666875" stroke-linecap="round" stroke-linejoin="round"/>
<path d="M11.838 11.2101C11.7412 10.9593 11.5955 10.7288 11.407 10.5343C11.0428 10.1584 10.5489 9.94727 10.0339 9.94727C9.51887 9.94727 9.02496 10.1584 8.66079 10.5343C8.29663 10.9101 8.09204 11.4199 8.09204 11.9514H9.06296" stroke="#27BDC2" stroke-width="0.666875" stroke-linecap="round" stroke-linejoin="round"/>
<path d="M7.8425 9.94727C7.44727 9.94727 7.06823 10.1584 6.78877 10.5343C6.5093 10.9101 6.35229 11.4199 6.35229 11.9514H7.0974" stroke="#27BDC2" stroke-width="0.666875" stroke-linecap="round" stroke-linejoin="round"/>
<path d="M12.3389 9.94727C12.7249 9.94727 13.0951 10.1584 13.3681 10.5343C13.49 10.7022 13.5891 10.8919 13.6614 11.0978" stroke="#27BDC2" stroke-width="0.666875" stroke-linecap="round" stroke-linejoin="round"/>
<path d="M11.7727 7.50541C11.9138 7.37448 12.1028 7.29443 12.3104 7.29443C12.7472 7.29443 13.1012 7.64848 13.1012 8.08521C13.1012 8.52194 12.7472 8.87598 12.3104 8.87598C12.1028 8.87598 11.9138 8.79593 11.7727 8.665" stroke="#27BDC2" stroke-width="0.666875" stroke-linecap="round" stroke-linejoin="round"/>
<path d="M8.20776 7.50541C8.06666 7.37448 7.87769 7.29443 7.67002 7.29443C7.23329 7.29443 6.87924 7.64848 6.87924 8.08521C6.87924 8.52195 7.23329 8.87599 7.67002 8.87599C7.87769 8.87599 8.06666 8.79594 8.20776 8.66501" stroke="#27BDC2" stroke-width="0.666875" stroke-linecap="round" stroke-linejoin="round"/>
<path d="M11.3502 11.9731C11.0554 11.6728 10.5787 11.6717 10.2852 11.9708C9.99169 12.2699 9.99271 12.7557 10.2874 13.056C10.5821 13.3563 11.0588 13.3573 11.3523 13.0582C11.4883 12.9197 11.5251 12.7557 11.5251 12.7557L13.6042 12.7584C13.662 12.7585 13.7775 12.7234 13.7773 12.5821L13.7769 12.4307C13.7727 12.376 13.7345 12.2666 13.6156 12.2664L13.4687 12.266C13.4682 12.0893 13.3195 12.0385 13.2329 12.051C13.0843 12.0758 13.0723 12.24 13.0723 12.24L12.8978 12.24C12.8273 11.9074 12.5772 11.9605 12.4905 11.9731C12.3085 11.9996 12.2658 12.24 12.2658 12.24C12.2411 12.3157 11.7964 12.2769 11.6727 12.2765L11.5241 12.2763C11.514 12.165 11.404 12.0279 11.3502 11.9731Z" fill="#27BDC2"/>
</svg>
