<svg width="20" height="20" viewBox="0 0 20 20" fill="none" xmlns="http://www.w3.org/2000/svg">
<rect x="0.333333" y="0.333333" width="19.3333" height="19.3333" rx="9.66667" fill="#7FA6D8" fill-opacity="0.3"/>
<rect x="0.333333" y="0.333333" width="19.3333" height="19.3333" rx="9.66667" stroke="#7FA6D8" stroke-width="0.666667"/>
<path d="M13.1071 7.41748H7.6894C7.50531 7.41748 7.35607 7.56672 7.35607 7.75081V12.5699M7.35607 12.5699H6.33325M7.35607 12.5699H9.51753M13.6666 9.23667V12.2366C13.6666 12.4207 13.5173 12.5699 13.3333 12.5699H11.7035C11.5194 12.5699 11.3701 12.4207 11.3701 12.2366V9.23667C11.3701 9.05257 11.5194 8.90333 11.7035 8.90333H13.3333C13.5173 8.90333 13.6666 9.05257 13.6666 9.23667Z" stroke="#2B5690" stroke-width="0.666667" stroke-linecap="round"/>
<path d="M6.43945 12.582H9.61979" stroke="#2B5690" stroke-width="0.866667" stroke-linecap="round"/>
</svg>
