<svg width="20" height="20" viewBox="0 0 20 20" fill="none" xmlns="http://www.w3.org/2000/svg">
<rect x="0.333333" y="0.333333" width="19.3333" height="19.3333" rx="9.66667" fill="#9D15D6" fill-opacity="0.3"/>
<rect x="0.333333" y="0.333333" width="19.3333" height="19.3333" rx="9.66667" stroke="#9D15D6" stroke-width="0.666667"/>
<path d="M11.1403 8.9592H12.0815M11.1403 10.5435H12.0815M7.33885 12.569H7.06413C6.65872 12.569 6.33008 12.2404 6.33008 11.835V8.16471C6.33008 7.75931 6.65872 7.43066 7.06413 7.43066H12.9365C13.3419 7.43066 13.6706 7.75931 13.6706 8.16471V11.835C13.6706 12.2404 13.3419 12.569 12.9365 12.569H10.0622M7.33885 12.569C7.27672 11.8897 7.67848 11.0882 8.6735 11.0716C9.66851 11.0551 10.0622 12.0036 10.0622 12.569M7.33885 12.569H10.0622M9.40755 9.20772C9.40755 9.61312 9.0789 9.94177 8.6735 9.94177C8.26809 9.94177 7.93945 9.61312 7.93945 9.20772C7.93945 8.80231 8.26809 8.47367 8.6735 8.47367C9.0789 8.47367 9.40755 8.80231 9.40755 9.20772Z" stroke="#AB45D6" stroke-width="0.666667" stroke-linecap="round" stroke-linejoin="round"/>
</svg>
