<svg width="20" height="20" viewBox="0 0 20 20" fill="none" xmlns="http://www.w3.org/2000/svg">
<rect x="0.333333" y="0.333333" width="19.3333" height="19.3333" rx="9.66667" fill="#00895E" fill-opacity="0.3"/>
<rect x="0.333333" y="0.333333" width="19.3333" height="19.3333" rx="9.66667" stroke="#00895E" stroke-width="0.666667"/>
<path d="M7.75186 8.03302C8.21739 8.03302 8.59478 7.65563 8.59478 7.19009C8.59478 6.72456 8.21739 6.34717 7.75186 6.34717C7.28633 6.34717 6.90894 6.72456 6.90894 7.19009C6.90894 7.65563 7.28633 8.03302 7.75186 8.03302Z" stroke="#00895E" stroke-width="0.666667" stroke-linecap="round" stroke-linejoin="round"/>
<path d="M9.99991 13.6522C10.4654 13.6522 10.8428 13.2748 10.8428 12.8092C10.8428 12.3437 10.4654 11.9663 9.99991 11.9663C9.53437 11.9663 9.15698 12.3437 9.15698 12.8092C9.15698 13.2748 9.53437 13.6522 9.99991 13.6522Z" stroke="#00895E" stroke-width="0.666667" stroke-linecap="round" stroke-linejoin="round"/>
<path d="M9.99951 10V11.9668" stroke="#00895E" stroke-width="0.666667" stroke-linecap="round" stroke-linejoin="round"/>
<path d="M12.2472 8.03302C12.7128 8.03302 13.0901 7.65563 13.0901 7.19009C13.0901 6.72456 12.7128 6.34717 12.2472 6.34717C11.7817 6.34717 11.4043 6.72456 11.4043 7.19009C11.4043 7.65563 11.7817 8.03302 12.2472 8.03302Z" stroke="#00895E" stroke-width="0.666667" stroke-linecap="round" stroke-linejoin="round"/>
<path d="M7.75146 8.03271C7.75146 9.34399 8.96176 9.99954 9.99926 9.99954C11.0368 9.99954 12.2471 9.34399 12.2471 8.03271" stroke="#00895E" stroke-width="0.666667" stroke-linecap="round" stroke-linejoin="round"/>
</svg>
