<svg width="20" height="20" viewBox="0 0 20 20" fill="none" xmlns="http://www.w3.org/2000/svg">
<rect x="0.333333" y="0.333333" width="19.3333" height="19.3333" rx="9.66667" fill="#89A833" fill-opacity="0.3"/>
<rect x="0.333333" y="0.333333" width="19.3333" height="19.3333" rx="9.66667" stroke="#89A833" stroke-width="0.666667"/>
<path d="M11.1851 12.2607C11.3845 12.2609 11.5464 12.4227 11.5464 12.6221C11.5462 12.8213 11.3843 12.9832 11.1851 12.9834C10.9856 12.9834 10.8239 12.8214 10.8237 12.6221C10.8237 12.4226 10.9855 12.2607 11.1851 12.2607Z" fill="#89A833" stroke="#89A833" stroke-width="0.333333"/>
<path d="M11.1851 6.98096C11.3845 6.98114 11.5464 7.14289 11.5464 7.34229C11.5462 7.5415 11.3843 7.70343 11.1851 7.70361C10.9856 7.70361 10.8239 7.54161 10.8237 7.34229C10.8237 7.14278 10.9855 6.98096 11.1851 6.98096Z" fill="#89A833" stroke="#89A833" stroke-width="0.333333"/>
<path d="M6.69668 10.5095C6.98828 10.5095 7.22467 10.2731 7.22467 9.98154C7.22467 9.68998 6.98828 9.45361 6.69668 9.45361C6.40509 9.45361 6.1687 9.68998 6.1687 9.98154C6.1687 10.2731 6.40509 10.5095 6.69668 10.5095Z" fill="#89A833"/>
<path d="M11.7559 9.63933C11.7559 10.1204 12.146 10.5104 12.6271 10.5104C13.1082 10.5104 13.4983 10.1204 13.4983 9.63933C13.4983 9.15824 13.1082 8.76824 12.6271 8.76824C12.146 8.76824 11.7559 9.15824 11.7559 9.63933ZM11.7559 9.63933H10.419M10.419 9.63933C10.419 10.1204 10.0289 10.5104 9.54778 10.5104C9.33522 10.5104 9.14043 10.4343 8.98921 10.3078M10.419 9.63933C10.419 9.15824 10.0289 8.76824 9.54778 8.76824C9.33522 8.76824 9.14043 8.84436 8.98921 8.97083M8.98921 8.97083C8.79814 9.13062 8.67661 9.37078 8.67661 9.63933C8.67661 9.90787 8.79814 10.148 8.98921 10.3078M8.98921 8.97083L8.02377 7.76388M8.02377 7.76388C8.21903 7.60413 8.34366 7.36129 8.34366 7.08935C8.34366 6.60826 7.95362 6.21826 7.47249 6.21826C6.99135 6.21826 6.60132 6.60826 6.60132 7.08935C6.60132 7.57043 6.99135 7.96043 7.47249 7.96043C7.68165 7.96043 7.8736 7.88673 8.02377 7.76388ZM8.02377 11.5686C7.87361 11.4458 7.68172 11.3721 7.47261 11.3721C6.99148 11.3721 6.60144 11.7621 6.60144 12.2432C6.60144 12.7243 6.99148 13.1143 7.47261 13.1143C7.95375 13.1143 8.34379 12.7243 8.34379 12.2432C8.34379 11.9712 8.2191 11.7283 8.02377 11.5686ZM8.02377 11.5686L8.98921 10.3078" stroke="#89A833" stroke-width="0.666667" stroke-linecap="round" stroke-linejoin="round"/>
</svg>
