<svg width="20" height="20" viewBox="0 0 20 20" fill="none" xmlns="http://www.w3.org/2000/svg">
<rect width="20" height="20" rx="10" fill="#BA3D8C" fill-opacity="0.3"/>
<rect x="0.333333" y="0.333333" width="19.3333" height="19.3333" rx="9.66667" stroke="#BA3D8C" stroke-opacity="0.4" stroke-width="0.666667"/>
<path d="M5.97803 6.01611H6.28787C6.65606 6.01611 6.95454 6.31459 6.95454 6.68278V7.33971M6.95454 13.3174V11.8637M6.95454 11.8637H7.65019C7.81676 11.8637 7.9773 11.8013 8.1002 11.6889L8.22798 11.572C8.35088 11.4595 8.51142 11.3972 8.67799 11.3972H9.08625C9.25041 11.3972 9.4088 11.4577 9.53108 11.5673L9.67204 11.6936C9.79432 11.8031 9.95271 11.8637 10.1169 11.8637H12.6886C13.0568 11.8637 13.3553 11.5652 13.3553 11.197V8.00638C13.3553 7.63819 13.0568 7.33971 12.6886 7.33971H6.95454M6.95454 11.8637V7.33971" stroke="#BA3D8C" stroke-width="0.666667" stroke-linecap="round"/>
<path d="M10.5597 10.6605C10.5597 10.8971 10.368 11.0889 10.1314 11.0889C9.89485 11.0889 9.70308 10.8971 9.70308 10.6605C9.70308 10.424 9.89485 10.2322 10.1314 10.2322C10.368 10.2322 10.5597 10.424 10.5597 10.6605ZM10.5597 10.6605H11.6728V9.77334M11.1439 9.34224V9.64076C11.1439 9.71398 11.2033 9.77334 11.2765 9.77334H11.6728M11.1439 9.34224V9.04372C11.1439 8.97049 11.2033 8.91113 11.2765 8.91113H11.9241C11.9973 8.91113 12.0567 8.97049 12.0567 9.04372V9.64076C12.0567 9.71398 11.9973 9.77334 11.9241 9.77334H11.6728M11.1439 9.34224H9.70066M9.70066 9.34224C9.67782 9.1272 9.49585 8.95969 9.27476 8.95969C9.0382 8.95969 8.84644 9.15145 8.84644 9.38801C8.84644 9.62457 9.0382 9.81633 9.27476 9.81633C9.51131 9.81633 9.70308 9.62457 9.70308 9.38801C9.70308 9.37255 9.70226 9.35728 9.70066 9.34224Z" stroke="#BA3D8C" stroke-width="0.466667" stroke-linejoin="round"/>
</svg>
