<svg width="20" height="20" viewBox="0 0 20 20" fill="none" xmlns="http://www.w3.org/2000/svg">
<rect x="0.333333" y="0.333333" width="19.3333" height="19.3333" rx="9.66667" fill="#3E8098" fill-opacity="0.3"/>
<rect x="0.333333" y="0.333333" width="19.3333" height="19.3333" rx="9.66667" stroke="#167091" stroke-width="0.666667"/>
<path d="M12.8171 13.6455C12.8171 12.8745 12.5204 12.135 11.9921 11.5898C11.4638 11.0446 10.7473 10.7383 10.0002 10.7383C9.25316 10.7383 8.53667 11.0446 8.0084 11.5898C7.48013 12.135 7.18335 12.8745 7.18335 13.6455" stroke="#2E7690" stroke-width="0.666667" stroke-linecap="round" stroke-linejoin="round"/>
<path d="M10.0005 9.56644C10.8025 9.56644 11.4527 8.91629 11.4527 8.11428C11.4527 7.31227 10.8025 6.66211 10.0005 6.66211C9.1985 6.66211 8.54834 7.31227 8.54834 8.11428C8.54834 8.91629 9.1985 9.56644 10.0005 9.56644Z" stroke="#2E7690" stroke-width="0.666667" stroke-linecap="round" stroke-linejoin="round"/>
</svg>
